<svg id="Layer_1" enable-background="new 0 0 512 512" height="512" viewBox="0 0 512 512" width="512" xmlns="http://www.w3.org/2000/svg"><g><path d="m178.025 241.023h-81.423l-34.132-34.132c-4.975-5.175-13.92-5.175-18.895 0l-39.661 39.662c-5.218 5.217-5.218 13.678 0 18.895l39.662 39.662c5.218 5.218 13.677 5.218 18.895 0l34.132-34.131h81.285c-1.857-9.668-1.806-20.32.137-29.956z"/><path d="m334.113 270.977h81.285l34.132 34.132c4.975 5.175 13.92 5.175 18.895 0l39.662-39.662c5.218-5.217 5.218-13.678 0-18.895l-39.662-39.661c-5.218-5.218-13.677-5.218-18.895 0l-34.132 34.131h-81.424c1.944 9.636 1.995 20.289.139 29.955z"/><path d="m241.023 334.431v80.967l-34.132 34.132c-5.175 4.975-5.175 13.92 0 18.895l39.662 39.662c5.217 5.218 13.678 5.218 18.895 0l39.661-39.662c5.218-5.218 5.218-13.677 0-18.895l-34.132-34.132v-80.967c-9.65 1.901-20.303 1.901-29.954 0z"/><path d="m270.977 178.344v-81.742l34.132-34.132c5.175-4.975 5.175-13.92 0-18.895l-39.662-39.661c-5.217-5.218-13.678-5.218-18.895 0l-39.661 39.662c-5.218 5.218-5.218 13.677 0 18.895l34.132 34.132v81.742c9.65-1.902 20.304-1.902 29.954-.001z"/><path d="m299.578 322.805 4.508 4.508-.11 51.895c-.018 8.272 6.674 14.991 14.946 15.009 8.268.019 14.992-6.673 15.009-14.946l.047-22.068 24.141 24.141.015.015 45.271 45.271-.112 61.883c-.015 8.272 6.678 14.989 14.95 15.005 8.268.016 14.99-6.678 15.005-14.95l.096-53.125 54.361.097c19.87-.754 19.912-29.134.054-29.955l-63.15-.112-19.65-19.65 33.088.059c19.87-.754 19.912-29.134.054-29.955l-63.15-.112-45.259-45.259c-.001-.001-.002-.002-.003-.003l-8.615-8.615c-5.784 8.236-13.082 15.328-21.496 20.867z"/><path d="m211.027 190.904-53.473-53.473.112-61.883c.015-8.272-6.678-14.989-14.95-15.005-8.268-.016-14.99 6.678-15.005 14.95l-.058 32.037-19.758-19.758.112-61.883c.015-8.272-6.678-14.989-14.95-15.005-8.268-.016-14.99 6.678-15.005 14.95l-.096 53.125-54.361-.097c-19.87.754-19.912 29.134-.054 29.955l63.15.112 45.259 45.259.009.009 23.713 23.713-22.135-.237c-8.269-.124-15.048 6.544-15.137 14.816-.089 8.271 6.545 15.048 14.816 15.137l52.736.565 4.015 4.014c5.613-8.358 12.772-15.591 21.06-21.301z"/><path d="m322.144 212.383 53.278-53.278 61.882.113c19.869-.754 19.914-29.133.055-29.955l-32.037-.058 19.758-19.758 61.882.113c19.869-.754 19.914-29.133.055-29.955l-53.126-.097.097-54.361c.015-8.272-6.679-14.989-14.95-15.004-8.268-.016-14.99 6.679-15.004 14.95l-.112 63.15-45.27 45.27c-.001.001-.002.002-.004.003l-23.707 23.707.237-22.135c.089-8.271-6.545-15.048-14.816-15.137-8.309-.088-15.048 6.544-15.137 14.816l-.565 52.736-3.519 3.519c8.273 5.733 15.412 12.985 21.003 21.361z"/><path d="m190.226 300.952-4.686 4.686-51.896-.11c-19.869.747-19.922 29.127-.063 29.955l22.068.047-24.157 24.157-45.27 45.27-61.883-.112c-19.869.754-19.914 29.133-.055 29.955l53.126.096-.097 54.361c-.015 8.272 6.679 14.989 14.95 15.004 8.269.016 14.99-6.679 15.004-14.95l.112-63.15 19.65-19.65-.059 33.089c-.015 8.272 6.679 14.989 14.95 15.004 8.269.016 14.99-6.679 15.004-14.95l.112-63.15 54.364-54.363c-8.32-5.666-15.516-12.864-21.174-21.189z"/><path d="m306.522 256.388c0-27.858-22.664-50.523-50.522-50.523-67.025 2.775-67.005 98.28 0 101.045 27.858 0 50.522-22.664 50.522-50.522z"/></g></svg>